<?xml version="1.0" encoding="UTF-8" standalone="no"?>
<!-- Created with Inkscape (http://www.inkscape.org/) -->

<svg
   xmlns:dc="http://purl.org/dc/elements/1.1/"
   xmlns:cc="http://creativecommons.org/ns#"
   xmlns:rdf="http://www.w3.org/1999/02/22-rdf-syntax-ns#"
   xmlns:svg="http://www.w3.org/2000/svg"
   xmlns="http://www.w3.org/2000/svg"
   xmlns:sodipodi="http://sodipodi.sourceforge.net/DTD/sodipodi-0.dtd"
   xmlns:inkscape="http://www.inkscape.org/namespaces/inkscape"
   width="21.166666mm"
   height="21.166666mm"
   viewBox="0 0 74.999998 74.999997"
   id="svg4621"
   version="1.1"
   inkscape:version="0.91 r13725"
   sodipodi:docname="logo_white.svg">
  <defs
     id="defs4623" />
  <sodipodi:namedview
     id="base"
     pagecolor="#ffffff"
     bordercolor="#666666"
     borderopacity="1.0"
     inkscape:pageopacity="0.0"
     inkscape:pageshadow="2"
     inkscape:zoom="0.35"
     inkscape:cx="131.13619"
     inkscape:cy="61.785714"
     inkscape:document-units="px"
     inkscape:current-layer="layer1"
     showgrid="false"
     fit-margin-top="0"
     fit-margin-left="0"
     fit-margin-right="0"
     fit-margin-bottom="0"
     inkscape:window-width="1169"
     inkscape:window-height="864"
     inkscape:window-x="2724"
     inkscape:window-y="81"
     inkscape:window-maximized="0" />
  <metadata
     id="metadata4626">
    <rdf:RDF>
      <cc:Work
         rdf:about="">
        <dc:format>image/svg+xml</dc:format>
        <dc:type
           rdf:resource="http://purl.org/dc/dcmitype/StillImage" />
        <dc:title></dc:title>
      </cc:Work>
    </rdf:RDF>
  </metadata>
  <g
     inkscape:label="Layer 1"
     inkscape:groupmode="layer"
     id="layer1"
     transform="translate(-1095.3571,-519.14791)">
    <path
       sodipodi:nodetypes="cccccccccccccccccccccccccccsccccssscccscccsccccccssscccssccssccssccsscccscccsscccscccscccscccs"
       inkscape:connector-curvature="0"
       id="path4270-2-6-0-5-9-8"
       d="m 1095.3571,519.14791 0,75 16.9886,0 0,-44.89448 15.9531,32.64078 9.116,0 15.9531,-32.64078 0,44.89448 16.9892,0 0,-75 -18.3356,0 -19.1647,39.18994 -19.0603,-39.18994 z m 61.6218,30.04462 9.3844,0 0,3.27273 -5.7029,0 0,1.92549 4.8717,0 0,3.04233 -4.8717,0 0,2.15661 5.8727,0 0,3.27348 -9.5542,0 z m 5.0948,14.8462 c 1.1959,0 2.2409,0.27575 3.1346,0.82772 0.8938,0.53913 1.5546,1.25806 1.9826,2.15662 l -2.8137,2.04144 c -0.1133,-0.33375 -0.2646,-0.61024 -0.4534,-0.82846 -0.1762,-0.21822 -0.371,-0.39117 -0.585,-0.51954 -0.214,-0.12836 -0.4409,-0.21869 -0.6801,-0.27003 -0.2391,-0.0514 -0.4591,-0.0771 -0.6606,-0.0771 -0.4657,0 -0.8683,0.10906 -1.2082,0.32729 -0.3273,0.20538 -0.6045,0.48187 -0.8311,0.82845 -0.214,0.33376 -0.3714,0.71856 -0.4721,1.155 -0.1007,0.42361 -0.1511,0.84733 -0.1511,1.27093 0,0.47495 0.056,0.93063 0.1698,1.36706 0.1259,0.43644 0.3023,0.82126 0.5289,1.15501 0.2392,0.33375 0.5226,0.60399 0.8499,0.80937 0.3399,0.19256 0.7233,0.28839 1.1513,0.28839 0.2141,0 0.4348,-0.0257 0.6614,-0.0771 0.2266,-0.0642 0.4405,-0.16001 0.6419,-0.28838 0.214,-0.14121 0.4027,-0.31488 0.5663,-0.52027 0.1762,-0.21821 0.3145,-0.48148 0.4152,-0.78956 l 3.003,1.82936 c -0.1889,0.50062 -0.4784,0.95005 -0.8686,1.34798 -0.3777,0.39793 -0.8123,0.73132 -1.3032,1.00091 -0.491,0.26956 -1.0135,0.47518 -1.5673,0.61638 -0.5539,0.14121 -1.0955,0.21207 -1.6242,0.21207 -0.9316,0 -1.7871,-0.19938 -2.5676,-0.59731 -0.7805,-0.41078 -1.4542,-0.9498 -2.0206,-1.61729 -0.5539,-0.6675 -0.9878,-1.42463 -1.3025,-2.27184 -0.3147,-0.84721 -0.4721,-1.70716 -0.4721,-2.58003 0,-0.83439 0.1444,-1.65612 0.4339,-2.46483 0.2896,-0.80871 0.7112,-1.53388 1.2651,-2.17572 0.5665,-0.64182 1.2463,-1.16211 2.0394,-1.56004 0.8056,-0.39794 1.7184,-0.59658 2.7381,-0.59657 z m -0.1619,14.94231 c 0.9567,0 1.8252,0.19938 2.6057,0.59732 0.7931,0.39793 1.4668,0.92445 2.0207,1.57913 0.5664,0.65467 1.001,1.39857 1.3032,2.23295 0.3021,0.83437 0.4526,1.68806 0.4526,2.56095 0,0.89856 -0.1635,1.76547 -0.4908,2.59985 -0.3147,0.82153 -0.7554,1.55295 -1.3219,2.19478 -0.5665,0.629 -1.2463,1.13607 -2.0394,1.52117 -0.793,0.38509 -1.6615,0.57749 -2.6057,0.57749 -0.9567,0 -1.8313,-0.19864 -2.6244,-0.59657 -0.7805,-0.39795 -1.4542,-0.91823 -2.0207,-1.56005 -0.5539,-0.65467 -0.9877,-1.39932 -1.3025,-2.23368 -0.3021,-0.83439 -0.4533,-1.69432 -0.4533,-2.58004 0,-0.89856 0.1573,-1.76475 0.4721,-2.59911 0.3272,-0.83439 0.7802,-1.5658 1.3593,-2.1948 0.5791,-0.64182 1.2589,-1.1489 2.0394,-1.52115 0.793,-0.38511 1.6616,-0.57825 2.6057,-0.57825 z m -0.056,3.33144 c -0.4658,0 -0.8691,0.10281 -1.209,0.3082 -0.3273,0.20539 -0.6038,0.48113 -0.8304,0.82772 -0.214,0.33375 -0.3782,0.71856 -0.4915,1.155 -0.1007,0.42361 -0.1511,0.86055 -0.1511,1.30983 0,0.46212 0.05,0.91155 0.1511,1.34799 0.1133,0.4236 0.2836,0.80217 0.5102,1.13592 0.2266,0.33375 0.51,0.60327 0.8499,0.80865 0.3399,0.20538 0.7363,0.30819 1.1895,0.30819 0.4658,0 0.8683,-0.10281 1.2082,-0.30819 0.3399,-0.21822 0.6172,-0.49398 0.8312,-0.82773 0.214,-0.34659 0.3713,-0.73836 0.472,-1.1748 0.1133,-0.43645 0.1699,-0.87963 0.1699,-1.32891 0,-0.46212 -0.056,-0.90457 -0.1699,-1.32819 -0.1133,-0.43643 -0.2836,-0.81499 -0.5102,-1.13591 -0.214,-0.33376 -0.4905,-0.59701 -0.8304,-0.78957 -0.3399,-0.20537 -0.7363,-0.3082 -1.1895,-0.3082 z"
       style="font-style:normal;font-variant:normal;font-weight:800;font-stretch:normal;font-size:281.1619873px;line-height:100%;font-family:Raleway;-inkscape-font-specification:'Raleway Ultra-Bold';letter-spacing:0px;word-spacing:0px;baseline-shift:baseline;display:inline;fill:#ffffff;fill-opacity:1;stroke:none;stroke-width:1px;stroke-linecap:butt;stroke-linejoin:miter;stroke-opacity:1" />
  </g>
</svg>
