<?xml version="1.0" encoding="UTF-8" standalone="no"?>
<!-- Created with Inkscape (http://www.inkscape.org/) -->

<svg
   xmlns:dc="http://purl.org/dc/elements/1.1/"
   xmlns:cc="http://creativecommons.org/ns#"
   xmlns:rdf="http://www.w3.org/1999/02/22-rdf-syntax-ns#"
   xmlns:svg="http://www.w3.org/2000/svg"
   xmlns="http://www.w3.org/2000/svg"
   xmlns:sodipodi="http://sodipodi.sourceforge.net/DTD/sodipodi-0.dtd"
   xmlns:inkscape="http://www.inkscape.org/namespaces/inkscape"
   width="127.85713"
   height="127.85712"
   viewBox="0 0 119.86606 119.86606"
   id="svg6073"
   version="1.1"
   inkscape:version="0.92.4 (unknown)"
   sodipodi:docname="icon_kul1.svg">
  <defs
     id="defs6075" />
  <sodipodi:namedview
     id="base"
     pagecolor="#ffffff"
     bordercolor="#666666"
     borderopacity="1.0"
     inkscape:pageopacity="0.0"
     inkscape:pageshadow="2"
     inkscape:zoom="0.35"
     inkscape:cx="-615.79828"
     inkscape:cy="491.21466"
     inkscape:document-units="px"
     inkscape:current-layer="layer1"
     showgrid="false"
     fit-margin-top="0"
     fit-margin-left="0"
     fit-margin-right="0"
     fit-margin-bottom="0"
     inkscape:window-width="1873"
     inkscape:window-height="1056"
     inkscape:window-x="47"
     inkscape:window-y="24"
     inkscape:window-maximized="1"
     units="px" />
  <metadata
     id="metadata6078">
    <rdf:RDF>
      <cc:Work
         rdf:about="">
        <dc:format>image/svg+xml</dc:format>
        <dc:type
           rdf:resource="http://purl.org/dc/dcmitype/StillImage" />
        <dc:title></dc:title>
      </cc:Work>
    </rdf:RDF>
  </metadata>
  <g
     inkscape:label="Layer 1"
     inkscape:groupmode="layer"
     id="layer1"
     transform="translate(34.642857,62.280653)">
    <path
       sodipodi:nodetypes="cccccccccccccccccccccccccccsccccssscccscccsccccccssscccssccssccssccsscccscccsscccscccscccscccs"
       inkscape:connector-curvature="0"
       id="path4270-2-6"
       d="M -34.642857,-62.280653 V 57.585407 H -7.4914703 V -14.165586 L 18.004937,38.001369 H 32.574288 L 58.070696,-14.165586 V 57.585407 H 85.223205 V -62.280653 H 55.918862 L 25.289612,0.35326546 -5.1728773,-62.280653 Z m 98.484719,48.017737 h 14.998343 v 5.2305226 h -9.114498 v 3.0773466 h 7.78613 v 4.8622939 h -7.78613 v 3.4467255 h 9.38591 V 7.5856934 H 63.841862 Z M 71.984505,9.46449 c 1.911289,0 3.581359,0.4407095 5.009797,1.322875 1.428451,0.861646 2.484466,2.01065 3.1685,3.446739 l -4.496874,3.262661 c -0.181045,-0.533406 -0.422761,-0.975296 -0.724555,-1.324059 -0.281649,-0.348763 -0.593,-0.625172 -0.935011,-0.830333 -0.342006,-0.205147 -0.704575,-0.349517 -1.086858,-0.43157 -0.382259,-0.08215 -0.733864,-0.123219 -1.055772,-0.123219 -0.744404,0 -1.387796,0.174301 -1.930998,0.523078 -0.523092,0.328241 -0.966211,0.770131 -1.328355,1.32404 -0.342018,0.53342 -0.593492,1.148413 -0.754452,1.845939 -0.16096,0.677018 -0.241523,1.354215 -0.241523,2.031219 0,0.759071 0.0903,1.487343 0.271407,2.184851 0.201214,0.697526 0.483191,1.312547 0.845329,1.845952 0.382259,0.533406 0.835165,0.965306 1.358246,1.29355 0.543225,0.30775 1.156109,0.460905 1.840144,0.460905 0.342035,0 0.694799,-0.04105 1.056949,-0.123219 0.362145,-0.102604 0.703974,-0.25573 1.025883,-0.460891 0.342011,-0.225688 0.64358,-0.503252 0.905133,-0.831504 0.281649,-0.348748 0.502638,-0.769513 0.66358,-1.261888 l 4.799342,2.923712 c -0.301782,0.800094 -0.764464,1.518378 -1.388154,2.154359 -0.603582,0.635974 -1.298199,1.168802 -2.08282,1.599668 -0.784645,0.430816 -1.619665,0.759441 -2.504895,0.985107 -0.885243,0.225683 -1.750784,0.338933 -2.595761,0.338933 -1.488819,0 -2.856167,-0.318652 -4.103542,-0.954633 -1.247357,-0.65651 -2.324087,-1.51798 -3.229445,-2.584774 -0.88523,-1.066804 -1.578682,-2.276862 -2.081672,-3.630883 -0.50296,-1.354026 -0.754458,-2.728409 -0.754458,-4.123439 0,-1.333536 0.23077,-2.646836 0.693519,-3.939327 0.46273,-1.292491 1.136631,-2.451467 2.02185,-3.477267 0.905358,-1.025767 1.991869,-1.857302 3.259365,-2.49328 1.287605,-0.6359908 2.746455,-0.9534598 4.376101,-0.9534452 z m -0.258761,23.881013 c 1.529024,0 2.917105,0.318648 4.16448,0.954644 1.267478,0.635977 2.344215,1.47747 3.229445,2.523791 0.905358,1.0463 1.599957,2.235212 2.082826,3.568726 0.482851,1.333501 0.723415,2.697881 0.723415,4.092953 0,1.436089 -0.261298,2.821598 -0.78439,4.155111 -0.502972,1.312981 -1.207352,2.481948 -2.11271,3.507727 -0.905339,1.005282 -1.991857,1.815685 -3.259359,2.431159 -1.267502,0.615457 -2.655571,0.922955 -4.164486,0.922955 -1.529049,0 -2.926887,-0.317473 -4.194377,-0.953451 -1.247375,-0.636009 -2.324099,-1.467527 -3.229457,-2.493294 -0.885231,-1.046307 -1.578683,-2.236414 -2.081655,-3.569897 -0.482875,-1.333532 -0.724567,-2.707888 -0.724567,-4.123456 0,-1.436096 0.251473,-2.820445 0.754451,-4.153935 0.523093,-1.333531 1.247066,-2.50248 2.172532,-3.507762 0.925461,-1.025764 2.011978,-1.836186 3.259366,-2.431122 1.267477,-0.615487 2.655559,-0.924168 4.164486,-0.924168 z m -0.08983,5.324349 c -0.744397,0 -1.388943,0.164316 -1.932156,0.492572 -0.523099,0.328262 -0.965065,0.768954 -1.327203,1.322877 -0.342005,0.533401 -0.604431,1.148409 -0.785507,1.845933 -0.160954,0.67702 -0.241504,1.375344 -0.241504,2.093389 0,0.738572 0.08055,1.456854 0.241504,2.154377 0.181076,0.677003 0.453283,1.282041 0.815427,1.815443 0.362114,0.533401 0.815039,0.96416 1.358258,1.292398 0.543196,0.328243 1.176807,0.492553 1.901089,0.492553 0.744404,0 1.38779,-0.16431 1.931004,-0.492553 0.543207,-0.348765 0.986344,-0.789487 1.32835,-1.322889 0.342029,-0.553929 0.593503,-1.180059 0.754463,-1.877583 0.181063,-0.697541 0.271425,-1.405841 0.271425,-2.123886 0,-0.73856 -0.0903,-1.445695 -0.271425,-2.122728 -0.181075,-0.697511 -0.453264,-1.302531 -0.81542,-1.81543 -0.342006,-0.53342 -0.783978,-0.954148 -1.327191,-1.261901 -0.543202,-0.328225 -1.176813,-0.492572 -1.901114,-0.492572 z"
       style="font-style:normal;font-variant:normal;font-weight:800;font-stretch:normal;font-size:281.1619873px;line-height:100%;font-family:Raleway;-inkscape-font-specification:'Raleway Ultra-Bold';letter-spacing:0px;word-spacing:0px;baseline-shift:baseline;display:inline;fill:#00407a;fill-opacity:1;stroke:none;stroke-width:1.59821415px;stroke-linecap:butt;stroke-linejoin:miter;stroke-opacity:1" />
  </g>
</svg>
