<?xml version="1.0" encoding="UTF-8" standalone="no"?>
<!-- Created with Inkscape (http://www.inkscape.org/) -->

<svg
   xmlns:dc="http://purl.org/dc/elements/1.1/"
   xmlns:cc="http://creativecommons.org/ns#"
   xmlns:rdf="http://www.w3.org/1999/02/22-rdf-syntax-ns#"
   xmlns:svg="http://www.w3.org/2000/svg"
   xmlns="http://www.w3.org/2000/svg"
   xmlns:sodipodi="http://sodipodi.sourceforge.net/DTD/sodipodi-0.dtd"
   xmlns:inkscape="http://www.inkscape.org/namespaces/inkscape"
   width="84.671181mm"
   height="30.056658mm"
   viewBox="0 0 300.01599 106.49997"
   id="svg6836"
   version="1.1"
   inkscape:version="0.91 r13725"
   sodipodi:docname="short_kul1.svg">
  <defs
     id="defs6838" />
  <sodipodi:namedview
     id="base"
     pagecolor="#ffffff"
     bordercolor="#666666"
     borderopacity="1.0"
     inkscape:pageopacity="0.0"
     inkscape:pageshadow="2"
     inkscape:zoom="0.35"
     inkscape:cx="59.293702"
     inkscape:cy="-603.89287"
     inkscape:document-units="px"
     inkscape:current-layer="layer1"
     showgrid="false"
     fit-margin-top="0"
     fit-margin-left="0"
     fit-margin-right="0"
     fit-margin-bottom="0"
     inkscape:window-width="960"
     inkscape:window-height="1043"
     inkscape:window-x="0"
     inkscape:window-y="0"
     inkscape:window-maximized="0" />
  <metadata
     id="metadata6841">
    <rdf:RDF>
      <cc:Work
         rdf:about="">
        <dc:format>image/svg+xml</dc:format>
        <dc:type
           rdf:resource="http://purl.org/dc/dcmitype/StillImage" />
        <dc:title></dc:title>
      </cc:Work>
    </rdf:RDF>
  </metadata>
  <g
     inkscape:label="Layer 1"
     inkscape:groupmode="layer"
     id="layer1"
     transform="translate(-347.13487,172.31635)">
    <g
       transform="translate(220.87144,-149.67854)"
       style="display:inline"
       id="g6816">
      <g
         id="text4889-6-1-0-9-3-0-3-8-1"
         style="font-style:normal;font-variant:normal;font-weight:normal;font-stretch:normal;font-size:8.51317024px;line-height:100%;font-family:arial;-inkscape-font-specification:arial;letter-spacing:-4.53114939px;word-spacing:0px;display:inline;opacity:1;fill:#00407a;fill-opacity:1;stroke:none;stroke-width:1px;stroke-linecap:butt;stroke-linejoin:miter;stroke-opacity:1"
         transform="matrix(0.99602407,0,0,1.0039918,126.26343,-955)">
        <path
           inkscape:connector-curvature="0"
           id="path4349-9-8"
           style="font-style:normal;font-variant:normal;font-weight:bold;font-stretch:normal;font-size:113.27873993px;line-height:100%;font-family:Raleway;-inkscape-font-specification:'Raleway Bold';letter-spacing:-4.53114939px;fill:#00407a;fill-opacity:1"
           d="m 65.58839,1009.6495 0,-53.24103 -20.73001,39.64756 -8.495905,0 -20.73001,-39.64756 0,53.24103 -15.63246573242188,0 0,-80.42793 16.76525373242188,0 23.788535,45.76461 24.015093,-45.76461 16.651975,0 0,80.42793 -15.632466,0 z" />
        <path
           inkscape:connector-curvature="0"
           id="path4351-2-5"
           style="font-style:normal;font-variant:normal;font-weight:bold;font-stretch:normal;font-size:113.27873993px;line-height:100%;font-family:Raleway;-inkscape-font-specification:'Raleway Bold';letter-spacing:-4.53114939px;fill:#00407a;fill-opacity:1"
           d="m 149.32792,995.94275 0,13.70675 -55.846414,0 0,-80.42793 54.826914,0 0,13.70673 -39.19445,0 0,19.37066 33.87034,0 0,12.68722 -33.87034,0 0,20.95657 40.21395,0 z" />
        <path
           inkscape:connector-curvature="0"
           id="path4353-6-9"
           style="font-style:normal;font-variant:normal;font-weight:bold;font-stretch:normal;font-size:113.27873993px;line-height:100%;font-family:Raleway;-inkscape-font-specification:'Raleway Bold';letter-spacing:-4.53114939px;fill:#00407a;fill-opacity:1"
           d="m 150.45363,968.86913 q 0,-7.36312 2.60541,-14.49968 2.71869,-7.24984 7.81623,-12.91378 5.09755,-5.66393 12.46066,-9.17557 7.36312,-3.51165 16.76526,-3.51165 11.10131,0 19.1441,4.87099 8.15607,4.87099 12.12083,12.68722 l -12.00755,8.26935 q -1.5859,-3.39836 -3.85147,-5.66394 -2.26558,-2.37885 -4.87099,-3.7382 -2.60541,-1.35934 -5.43738,-1.92574 -2.83197,-0.67967 -5.55066,-0.67967 -5.89049,0 -10.30836,2.37885 -4.30459,2.37886 -7.24984,6.23034 -2.83197,3.73819 -4.30459,8.60918 -1.47263,4.75771 -1.47263,9.51541 0,5.3241 1.69918,10.30837 1.69918,4.87098 4.75771,8.60918 3.17181,3.7382 7.4764,6.00378 4.41787,2.26557 9.62869,2.26557 2.71869,0 5.66394,-0.67967 2.94524,-0.67967 5.55066,-2.1523 2.71869,-1.47262 4.98426,-3.7382 2.26558,-2.37885 3.62492,-5.66393 l 12.8005,7.36312 q -1.92574,4.53115 -5.55066,8.04279 -3.51164,3.39835 -8.04279,5.77725 -4.41787,2.3788 -9.51542,3.6249 -5.09754,1.246 -9.96852,1.246 -8.60919,0 -15.74575,-3.6249 -7.13656,-3.6249 -12.34738,-9.40211 -5.09755,-5.89049 -8.04279,-13.25361 -2.83197,-7.4764 -2.83197,-15.17935 z" />
        <path
           inkscape:connector-curvature="0"
           id="path4355-6-7"
           style="font-style:normal;font-variant:normal;font-weight:bold;font-stretch:normal;font-size:113.27873993px;line-height:100%;font-family:Raleway;-inkscape-font-specification:'Raleway Bold';letter-spacing:-4.53114939px;fill:#00407a;fill-opacity:1"
           d="m 261.88982,1010.2159 q -8.83574,0 -16.08558,-3.3984 -7.13656,-3.5116 -12.34739,-9.17557 -5.09754,-5.77722 -7.92951,-13.14034 -2.83197,-7.36311 -2.83197,-15.06607 0,-8.04279 2.94525,-15.40591 3.05853,-7.36311 8.26935,-13.02705 5.3241,-5.66394 12.57394,-8.94902 7.24984,-3.39836 15.74574,-3.39836 8.72247,0 15.85903,3.62492 7.24984,3.51164 12.34738,9.28885 5.09754,5.77722 7.92951,13.14034 2.83197,7.36311 2.83197,14.95279 0,8.04279 -2.94525,15.40591 -2.94524,7.24984 -8.15607,12.91377 -5.21082,5.55064 -12.46066,8.94904 -7.24984,3.2851 -15.74574,3.2851 z M 238.5544,969.43552 q 0,5.21082 1.5859,10.08181 1.5859,4.87099 4.53115,8.60918 3.05853,3.7382 7.36312,6.00378 4.41787,2.26557 9.96853,2.26557 5.66393,0 9.96853,-2.26557 4.41787,-2.37886 7.36311,-6.23033 3.05853,-3.85148 4.53115,-8.60919 1.58591,-4.87098 1.58591,-9.85525 0,-5.21082 -1.69919,-10.08181 -1.5859,-4.87098 -4.64442,-8.60918 -2.94525,-3.7382 -7.36312,-5.89049 -4.30459,-2.26558 -9.74197,-2.26558 -5.66394,0 -10.08181,2.37885 -4.41787,2.26558 -7.36312,6.11706 -2.94525,3.73819 -4.53115,8.60918 -1.47262,4.75771 -1.47262,9.74197 z" />
      </g>
      <g
         id="text4893-2-1-6-0-56-9-0-4-5"
         style="font-style:normal;font-weight:normal;font-size:8.62981415px;line-height:100%;font-family:sans-serif;letter-spacing:0px;word-spacing:0px;display:inline;opacity:1;fill:#00407a;fill-opacity:1;stroke:none;stroke-width:1px;stroke-linecap:butt;stroke-linejoin:miter;stroke-opacity:1"
         transform="matrix(0.99771822,0,0,1.002287,126.26343,-955)">
        <path
           inkscape:connector-curvature="0"
           id="path4324-9-3"
           style="font-style:normal;font-variant:normal;font-weight:500;font-stretch:normal;font-size:29.01950645px;line-height:100%;font-family:Raleway;-inkscape-font-specification:'Raleway Medium';letter-spacing:5.57174587px;fill:#00407a;fill-opacity:1"
           d="m 0.01604431,1036.2886 0,-20.6039 8.82192999,0 q 1.3639167,0 2.4956777,0.5804 1.16078,0.5514 1.973326,1.509 0.841566,0.9287 1.305878,2.1185 0.464312,1.1607 0.464312,2.3796 0,1.0737 -0.319214,2.0894 -0.290195,0.9866 -0.870586,1.7992 -0.55137,0.8125 -1.363916,1.3929 -0.783527,0.5804 -1.77019,0.8416 l 4.991355,7.8933 -2.95999,0 -4.7011599,-7.4 -5.4556672,0 0,7.4 -2.61175559,0 z m 2.61175559,-9.7216 6.2391939,0 q 0.8125462,0 1.4509752,-0.3482 0.667449,-0.3482 1.131761,-0.9286 0.464312,-0.6094 0.725488,-1.393 0.261175,-0.7835 0.261175,-1.625 0,-0.8706 -0.319214,-1.6251 -0.290196,-0.7836 -0.812547,-1.364 -0.493331,-0.6094 -1.189799,-0.9286 -0.6674491,-0.3482 -1.4219563,-0.3482 l -6.0650768,0 0,8.5607 z" />
        <path
           inkscape:connector-curvature="0"
           id="path4326-5-8"
           style="font-style:normal;font-variant:normal;font-weight:500;font-stretch:normal;font-size:29.01950645px;line-height:100%;font-family:Raleway;-inkscape-font-specification:'Raleway Medium';letter-spacing:5.57174587px;fill:#00407a;fill-opacity:1"
           d="m 38.619242,1033.967 0,2.3216 -13.987403,0 0,-20.6039 13.726227,0 0,2.3216 -11.114471,0 0,6.6745 9.663496,0 0,2.1764 -9.663496,0 0,7.1098 11.375647,0 z" />
        <path
           inkscape:connector-curvature="0"
           id="path4328-0-8"
           style="font-style:normal;font-variant:normal;font-weight:500;font-stretch:normal;font-size:29.01950645px;line-height:100%;font-family:Raleway;-inkscape-font-specification:'Raleway Medium';letter-spacing:5.57174587px;fill:#00407a;fill-opacity:1"
           d="m 59.875125,1020.0086 q -0.348235,-0.4062 -0.928625,-0.7835 -0.58039,-0.3772 -1.305877,-0.6674 -0.725488,-0.3193 -1.596073,-0.4934 -0.841566,-0.2031 -1.77019,-0.2031 -2.408619,0 -3.54038,0.8996 -1.102741,0.8996 -1.102741,2.4667 0,0.8415 0.319214,1.3929 0.319215,0.5514 0.986664,0.9576 0.696468,0.3773 1.71215,0.6675 1.015683,0.2902 2.408619,0.6094 1.596073,0.3482 2.872932,0.8125 1.305877,0.4353 2.205482,1.1028 0.928624,0.6674 1.392936,1.6251 0.493332,0.9576 0.493332,2.3505 0,1.48 -0.58039,2.5828 -0.58039,1.0737 -1.596073,1.7992 -0.986663,0.6965 -2.35058,1.0447 -1.363917,0.3192 -2.95999,0.3192 -2.379599,0 -4.527043,-0.7255 -2.118424,-0.7545 -3.859594,-2.1764 l 1.247839,-2.2055 q 0.464312,0.4933 1.1898,0.9866 0.754507,0.4934 1.683131,0.8996 0.957644,0.3773 2.031365,0.6385 1.102742,0.2321 2.292541,0.2321 2.205483,0 3.424302,-0.7835 1.218819,-0.7835 1.218819,-2.3506 0,-0.8706 -0.406273,-1.451 -0.377253,-0.6094 -1.13176,-1.0447 -0.754508,-0.4352 -1.886268,-0.7545 -1.102742,-0.3482 -2.524697,-0.6964 -1.567054,-0.3773 -2.756854,-0.8126 -1.189799,-0.4353 -2.002346,-1.0447 -0.783526,-0.6094 -1.189799,-1.48 -0.406273,-0.8706 -0.406273,-2.0894 0,-1.48 0.55137,-2.6117 0.551371,-1.1318 1.538034,-1.9153 0.986663,-0.7835 2.35058,-1.1608 1.363917,-0.4063 2.95999,-0.4063 2.089404,0 3.772536,0.6385 1.683131,0.6384 2.989009,1.7121 l -1.218819,2.1184 z" />
        <path
           inkscape:connector-curvature="0"
           id="path4330-4-3"
           style="font-style:normal;font-variant:normal;font-weight:500;font-stretch:normal;font-size:29.01950645px;line-height:100%;font-family:Raleway;-inkscape-font-specification:'Raleway Medium';letter-spacing:5.57174587px;fill:#00407a;fill-opacity:1"
           d="m 85.016897,1033.967 0,2.3216 -13.987402,0 0,-20.6039 13.726226,0 0,2.3216 -11.11447,0 0,6.6745 9.663495,0 0,2.1764 -9.663495,0 0,7.1098 11.375646,0 z" />
        <path
           inkscape:connector-curvature="0"
           id="path4332-8-1"
           style="font-style:normal;font-variant:normal;font-weight:500;font-stretch:normal;font-size:29.01950645px;line-height:100%;font-family:Raleway;-inkscape-font-specification:'Raleway Medium';letter-spacing:5.57174587px;fill:#00407a;fill-opacity:1"
           d="m 100.43986,1015.6847 2.20548,0 8.41566,20.6039 -2.78587,0 -2.43764,-6.0361 -8.647816,0 -2.408619,6.0361 -2.785872,0 8.444677,-20.6039 z m 4.81724,12.5365 -3.7145,-9.5184 -3.830574,9.5184 7.545074,0 z" />
        <path
           inkscape:connector-curvature="0"
           id="path4334-7-8"
           style="font-style:normal;font-variant:normal;font-weight:500;font-stretch:normal;font-size:29.01950645px;line-height:100%;font-family:Raleway;-inkscape-font-specification:'Raleway Medium';letter-spacing:5.57174587px;fill:#00407a;fill-opacity:1"
           d="m 119.41091,1036.2886 0,-20.6039 8.82193,0 q 1.36392,0 2.49568,0.5804 1.16078,0.5514 1.97333,1.509 0.84156,0.9287 1.30587,2.1185 0.46432,1.1607 0.46432,2.3796 0,1.0737 -0.31922,2.0894 -0.29019,0.9866 -0.87058,1.7992 -0.55138,0.8125 -1.36392,1.3929 -0.78353,0.5804 -1.77019,0.8416 l 4.99135,7.8933 -2.95999,0 -4.70116,-7.4 -5.45566,0 0,7.4 -2.61176,0 z m 2.61176,-9.7216 6.23919,0 q 0.81255,0 1.45098,-0.3482 0.66744,-0.3482 1.13176,-0.9286 0.46431,-0.6094 0.72548,-1.393 0.26118,-0.7835 0.26118,-1.625 0,-0.8706 -0.31921,-1.6251 -0.2902,-0.7836 -0.81255,-1.364 -0.49333,-0.6094 -1.1898,-0.9286 -0.66745,-0.3482 -1.42196,-0.3482 l -6.06507,0 0,8.5607 z" />
        <path
           inkscape:connector-curvature="0"
           id="path4336-1-9"
           style="font-style:normal;font-variant:normal;font-weight:500;font-stretch:normal;font-size:29.01950645px;line-height:100%;font-family:Raleway;-inkscape-font-specification:'Raleway Medium';letter-spacing:5.57174587px;fill:#00407a;fill-opacity:1"
           d="m 142.69181,1025.8416 q 0,-1.8573 0.63843,-3.6855 0.66745,-1.8573 1.91529,-3.3082 1.27686,-1.48 3.10509,-2.3796 1.82823,-0.8997 4.14979,-0.8997 2.75685,0 4.73018,1.2479 1.97332,1.2478 2.93097,3.2502 l -2.06039,1.3349 q -0.46431,-0.9867 -1.13176,-1.6541 -0.63843,-0.6675 -1.42196,-1.0738 -0.7545,-0.4062 -1.56705,-0.5804 -0.81255,-0.1741 -1.59607,-0.1741 -1.71215,0 -3.04705,0.7255 -1.30588,0.6965 -2.20548,1.8573 -0.89961,1.1317 -1.36392,2.5827 -0.43529,1.422 -0.43529,2.8729 0,1.6251 0.52235,3.1051 0.55137,1.451 1.50901,2.5828 0.95765,1.1317 2.26352,1.7992 1.30588,0.6674 2.84392,0.6674 0.81254,0 1.65411,-0.2031 0.87058,-0.2032 1.65411,-0.6385 0.78353,-0.4643 1.45098,-1.1317 0.69646,-0.6965 1.13176,-1.6541 l 2.17646,1.1898 q -0.49333,1.1608 -1.39294,2.0604 -0.87058,0.8705 -2.00234,1.48 -1.10274,0.6094 -2.35058,0.9286 -1.24784,0.3192 -2.43764,0.3192 -2.11843,0 -3.88862,-0.9286 -1.77019,-0.9287 -3.07606,-2.4087 -1.27686,-1.509 -2.00235,-3.3952 -0.69647,-1.9153 -0.69647,-3.8886 z" />
        <path
           inkscape:connector-curvature="0"
           id="path4338-7-6"
           style="font-style:normal;font-variant:normal;font-weight:500;font-stretch:normal;font-size:29.01950645px;line-height:100%;font-family:Raleway;-inkscape-font-specification:'Raleway Medium';letter-spacing:5.57174587px;fill:#00407a;fill-opacity:1"
           d="m 185.94946,1015.6847 0,20.6039 -2.61175,0 0,-9.3733 -11.34663,0 0,9.3733 -2.61175,0 0,-20.6039 2.61175,0 0,8.909 11.34663,0 0,-8.909 2.61175,0 z" />
        <path
           inkscape:connector-curvature="0"
           id="path4340-2-4"
           style="font-style:normal;font-variant:normal;font-weight:500;font-stretch:normal;font-size:29.01950645px;line-height:100%;font-family:Raleway;-inkscape-font-specification:'Raleway Medium';letter-spacing:5.57174587px;fill:#00407a;fill-opacity:1"
           d="m 223.38009,1018.0063 -7.10978,0 0,18.2823 -2.61176,0 0,-18.2823 -7.10977,0 0,-2.3216 16.83131,0 0,2.3216 z" />
        <path
           inkscape:connector-curvature="0"
           id="path4342-7-3"
           style="font-style:normal;font-variant:normal;font-weight:500;font-stretch:normal;font-size:29.01950645px;line-height:100%;font-family:Raleway;-inkscape-font-specification:'Raleway Medium';letter-spacing:5.57174587px;fill:#00407a;fill-opacity:1"
           d="m 245.87837,1033.967 0,2.3216 -13.9874,0 0,-20.6039 13.72622,0 0,2.3216 -11.11447,0 0,6.6745 9.6635,0 0,2.1764 -9.6635,0 0,7.1098 11.37565,0 z" />
        <path
           inkscape:connector-curvature="0"
           id="path4344-2-3"
           style="font-style:normal;font-variant:normal;font-weight:500;font-stretch:normal;font-size:29.01950645px;line-height:100%;font-family:Raleway;-inkscape-font-specification:'Raleway Medium';letter-spacing:5.57174587px;fill:#00407a;fill-opacity:1"
           d="m 261.30133,1015.6847 2.20548,0 8.41566,20.6039 -2.78587,0 -2.43764,-6.0361 -8.64781,0 -2.40862,6.0361 -2.78587,0 8.44467,-20.6039 z m 4.81724,12.5365 -3.7145,-9.5184 -3.83057,9.5184 7.54507,0 z" />
        <path
           inkscape:connector-curvature="0"
           id="path4346-2-3"
           style="font-style:normal;font-variant:normal;font-weight:500;font-stretch:normal;font-size:29.01950645px;line-height:100%;font-family:Raleway;-inkscape-font-specification:'Raleway Medium';letter-spacing:5.57174587px;fill:#00407a;fill-opacity:1"
           d="m 298.09037,1036.2886 0,-15.9317 -6.8486,12.2172 -1.48,0 -6.87762,-12.2172 0,15.9317 -2.61176,0 0,-20.6039 2.75686,0 7.45801,13.378 7.48703,-13.378 2.72783,0 0,20.6039 -2.61175,0 z" />
      </g>
    </g>
  </g>
</svg>
